# xmcd
#
# Track frame offsets: 
#        150
#        11223
#        17209
#        30429
#        41337
#        53169
#        65794
#        81358
#        91209
#        105305
#        117930
#        132140
#        143378
#
# Disc length: 2186 seconds
#
# Revision: 0
# Processed by: cddbd v1.5.2PL0 Copyright (c) Steve Scherf et al.
# Submitted via: ExactAudioCopyFreeDBPlugin 1.0
#
DISCID=a008880d
DTITLE=The English Brothers - Livin' The Western Way
DYEAR=2011
DGENRE=Country
TTITLE0=Call of the Wild
TTITLE1=Canyon Trail Yodel
TTITLE2=Don't Fence Me In
TTITLE3=Ride Cowboy Ride
TTITLE4=Back in the Saddle Again
TTITLE5=Blue Prairie
TTITLE6=Rojo (The Cockfight)
TTITLE7=Rawhide
TTITLE8=Yodel Stampede
TTITLE9=The Western Way
TTITLE10=They Call The Wind Maria
TTITLE11=Cattle Call
TTITLE12=The Ballad of the Alamo
EXTD=
EXTT0=
EXTT1=
EXTT2=
EXTT3=
EXTT4=
EXTT5=
EXTT6=
EXTT7=
EXTT8=
EXTT9=
EXTT10=
EXTT11=
EXTT12=
PLAYORDER=
